<mxfile host="app.diagrams.net" modified="2022-05-20T12:58:31.166Z" agent="5.0 (Windows NT 10.0; Win64; x64) AppleWebKit/537.36 (KHTML, like Gecko) Chrome/101.0.0.0 Safari/537.36" etag="WcJYlE_kAHBUJjzT6r8V" version="18.0.8" type="github">
  <diagram id="lNqnWQlrgnRqup0vw0e9" name="第 1 页">
    <mxGraphModel dx="1422" dy="788" grid="1" gridSize="10" guides="1" tooltips="1" connect="1" arrows="1" fold="1" page="1" pageScale="1" pageWidth="1654" pageHeight="1169" math="1" shadow="0">
      <root>
        <mxCell id="0" />
        <mxCell id="1" parent="0" />
        <mxCell id="01LtdW2ey1wHVB4gt98n-3" value="导入节点" style="rounded=0;whiteSpace=wrap;html=1;" vertex="1" parent="1">
          <mxGeometry x="550" y="30" width="120" height="60" as="geometry" />
        </mxCell>
      </root>
    </mxGraphModel>
  </diagram>
</mxfile>
